<?xml version="1.0" encoding="utf-8"?>
<!-- Generator: Adobe Illustrator 18.1.1, SVG Export Plug-In . SVG Version: 6.00 Build 0)  -->
<svg version="1.1" id="Layer_1" xmlns="http://www.w3.org/2000/svg" xmlns:xlink="http://www.w3.org/1999/xlink" x="0px" y="0px"
	 width="676px" height="162.9px" viewBox="-161 419.1 676 162.9" enable-background="new -161 419.1 676 162.9"
	 xml:space="preserve">
<g>
	<path fill="#FFFFFF" stroke="#FFFFFF" stroke-miterlimit="10" d="M-110,451.1h12v31.5h-12V451.1z M31.6,471.6
		c-2.3-0.6-4.3-1.3-6.2-2.1c-1.9-0.8-3.5-1.7-4.8-2.5c-1.4-0.8-2.3-1.5-2.8-2l-5.3,10.4c3.6,2.6,7.7,4.5,12.2,5.9s9.1,2.1,13.7,2.1
		h0.9v-10.9h-0.7C36.2,472.5,33.9,472.2,31.6,471.6L31.6,471.6z M102.7,431.4h14.5c1,0,2.1,0.2,3.1,0.7s1.9,1.2,2.7,2.1
		c0.8,0.9,1.4,2,1.9,3.2c0.5,1.2,0.7,2.6,0.7,4h12.1c0-2.5-0.5-5-1.5-7.4c-1-2.5-2.3-4.7-4.1-6.6c-1.7-1.9-3.8-3.5-6.2-4.7
		c-2.4-1.2-5-1.8-7.9-1.8H90.7v20.5h12C102.7,441.4,102.7,431.4,102.7,431.4z M161.1,482.6v-32h-12v32H161.1z M267.5,479.8l2.2,2.8
		h9.8v-32h-12V479.8z M350.4,420.8h12v29.7h-12L350.4,420.8z M373.7,550.8h12v30.8h-12V550.8z M276.3,519.8h-12v31h12v-0.4V519.8z
		 M247.2,529.3c-2.6-3-5.6-5.4-9.2-7.2c-3.6-1.8-7.6-2.7-11.9-2.7h-0.2v10.7c2.7,0,5.1,0.6,7.2,1.7c2.1,1.1,3.9,2.7,5.4,4.6
		c1.5,1.9,2.6,4.1,3.4,6.6s1.2,5.1,1.2,7.7v0.1h12.1c0-3.8-0.7-7.6-2.1-11.4C251.8,535.6,249.8,532.3,247.2,529.3z M41.4,530.4h12
		v14.9h-12V530.4z M16.9,519.8h11.9v61.8H16.9V519.8z M165.9,567.9l-7.8-19.8h-15.3l-7.6,19.8l-0.1-0.4v14.1h4.7l10.7-25.9
		l10.7,25.9h10.1l13.6-33.5h-11.8L165.9,567.9z"/>
</g>
</svg>
