<?xml version="1.0" encoding="utf-8"?>
<!-- Generator: Adobe Illustrator 18.1.1, SVG Export Plug-In . SVG Version: 6.00 Build 0)  -->
<svg version="1.1" id="Layer_1" xmlns="http://www.w3.org/2000/svg" xmlns:xlink="http://www.w3.org/1999/xlink" x="0px" y="0px"
	 width="676px" height="162.9px" viewBox="-161 419.1 676 162.9" enable-background="new -161 419.1 676 162.9"
	 xml:space="preserve">
<g>
	<path fill="#FFFFFF" stroke="#FFFFFF" stroke-miterlimit="10" d="M267.5,420.9h12v29.6h-12V420.9z M243.2,550.8
		c0,2.5-0.4,5-1.1,7.5c-0.8,2.5-1.9,4.7-3.3,6.7c-1.5,2-3.2,3.6-5.4,4.7c-2.1,1.2-4.6,1.8-7.4,1.8h-0.1v10.6c4.2,0,8.1-0.9,11.7-2.6
		s6.7-4,9.3-6.9c2.6-2.9,4.7-6.2,6.1-9.9c1.5-3.7,2.2-7.7,2.2-11.8v-0.1H243.2L243.2,550.8z M-161,472.1h43.5v10.5H-161V472.1z
		 M-110,420.8h12v30.3h-12V420.8z M-63,420.8h51.4v10.5H-63V420.8z M137.7,441.4h-12.1c0,1.4-0.2,2.7-0.6,3.9
		c-0.4,1.2-1,2.3-1.7,3.2s-1.5,1.6-2.5,2.1s-2,0.8-3.1,0.8h-15.1v-10h-12v20.5H128l-1.6-2.5c3.4-1.4,6.1-3.8,8.1-7.1
		C136.7,449,137.7,445.4,137.7,441.4z M149.1,420.8h12v29.7h-12V420.8z M201.3,450.6h12v32h-12V450.6z M298.3,420.8h-12.6l24.2,61.8
		h5.1v-15.1v0.1L298.3,420.8z M350.4,450.6h12v32h-12L350.4,450.6z M402.7,420.8v61.8h12v-58.4l-2.7-3.4H402.7z M463.6,420.8H515
		v10.5h-51.4V420.8z M-82.1,519.8h51.4v10.5h-51.4V519.8z M-23.2,544.8h40v10.4h-40V544.8z M322.7,519.8h12v61.8h-12V519.8z
		 M373.7,550.8h12v-31h-12V550.8z M264.3,550.8h12v30.8h-12V550.8z M39.1,446.1c-1.4-0.4-2.6-0.7-3.8-1c-1.8-0.5-3.2-1.1-4.4-1.7
		c-1.2-0.6-2-1.4-2.7-2.2c-0.6-0.8-0.9-1.9-0.9-3.2c0-2.2,0.8-3.9,2.4-5.1c1.6-1.2,4.1-1.8,7.4-1.8c0.6,0,1.3,0,1.9,0.1v-10.8h-1.6
		c-3.1,0-6.1,0.4-8.8,1.3c-2.7,0.8-5.1,2.1-7.2,3.7c-2.1,1.6-3.7,3.7-4.8,6.1c-1.2,2.4-1.7,5.2-1.7,8.4c0,2.4,0.4,4.4,1.1,6.2
		c0.7,1.7,1.8,3.2,3.3,4.5c1.4,1.3,3.3,2.4,5.4,3.3s4.7,1.8,7.7,2.7c2.4,0.6,4.6,1.2,6.6,1.8c0.1,0,0.1,0,0.2,0.1L39.1,446.1
		L39.1,446.1L39.1,446.1z M41.4,555h12v16.1h-12V555z M143.5,520h-11l10.3,28.1h7.7v-7.7L143.5,520z"/>
</g>
</svg>
