<?xml version="1.0" encoding="utf-8"?>
<!-- Generator: Adobe Illustrator 18.1.1, SVG Export Plug-In . SVG Version: 6.00 Build 0)  -->
<svg version="1.1" id="Layer_1" xmlns="http://www.w3.org/2000/svg" xmlns:xlink="http://www.w3.org/1999/xlink" x="0px" y="0px"
	 width="676px" height="162.9px" viewBox="-161 419.1 676 162.9" enable-background="new -161 419.1 676 162.9"
	 xml:space="preserve">
<g>
	<path fill="#FFFFFF" stroke="#FFFFFF" stroke-miterlimit="10" d="M-98,446.2h26v9.7h-26V446.2z M-43.2,431.4h12v51.2h-12V431.4z
		 M-3.7,430.1v9.3h9.6V428c0-1.7-0.4-3.2-1.2-4.3s-1.8-2-3-2.7c-1.2-0.7-2.6-1.2-4-1.4c-1.5-0.3-2.9-0.4-4.2-0.4v8.3
		c0.4,0,1,0.2,1.7,0.5C-4.2,428.2-3.8,428.9-3.7,430.1L-3.7,430.1z M54.4,479.1c2.1-1.4,3.8-3.3,5-5.7c1.2-2.3,1.9-5.2,1.9-8.5
		c0-2.8-0.5-5.2-1.4-7.2c-0.9-1.9-2.2-3.6-4-5c-1.7-1.4-3.8-2.6-6.3-3.5s-5.2-1.8-8.2-2.6c-0.7-0.2-1.5-0.4-2.1-0.5v12.3
		c1.9,0.6,3.5,1.2,4.8,1.8c1.4,0.7,2.5,1.5,3.2,2.4c0.8,0.9,1.1,2.1,1.1,3.5c0,4.1-3.1,6.2-9.2,6.3v10.8c2.7-0.1,5.3-0.4,7.8-1
		C49.9,481.6,52.3,480.6,54.4,479.1z M90.7,461.9h12v20.7h-12L90.7,461.9z M161.1,446.2h26v9.7h-26V446.2z M161.1,420.8h30.1v10.5
		h-30.1V420.8z M201.3,420.9h12v29.6h-12V420.9z M238,424.2l-2.7-3.4H226v61.8h12V424.2z M344.1,420.8h-12.6L315,467.5v15.1h5
		L344.1,420.8z M373.6,472.1h19.7v10.5h-19.7V472.1z M414.7,424.2V443l29.5,36.8v-18.4L414.7,424.2z M483.3,431.4h12v51.2h-12V431.4
		z M-62.3,530.4h12v51.2h-12V530.4z M-23.2,519.8h12v25h-12V519.8z M41.4,519.8h42.1v10.5H41.4V519.8z M41.4,571.1h42.9v10.5H41.4
		V571.1z M117.6,519.8h-13l25.1,61.8h5.4v-14.1L117.6,519.8z M208.7,550.7c0-2.6,0.4-5.1,1.1-7.5c0.8-2.5,1.9-4.7,3.3-6.6
		c1.5-1.9,3.3-3.5,5.4-4.7s4.6-1.8,7.4-1.8v-10.7c-4.2,0-8,0.9-11.6,2.6c-3.6,1.7-6.7,4-9.4,6.9c-2.6,2.9-4.7,6.2-6.2,10
		s-2.2,7.7-2.2,11.8H208.7C208.7,550.8,208.7,550.7,208.7,550.7L208.7,550.7z M301.1,581.6h13.6l-13-20.7h-13.6L301.1,581.6z
		 M408.7,579.4c3.7-1.5,6.9-3.6,9.6-6.3c2.7-2.7,4.7-5.9,6.1-9.7c1.4-3.8,2.1-8,2.1-12.7h-12.1c0,2.9-0.4,5.5-1.2,8s-2,4.7-3.5,6.5
		s-3.5,3.3-5.7,4.3c-2.3,1-4.9,1.6-7.9,1.6h-10.4v10.5h10.4C400.7,581.6,404.9,580.9,408.7,579.4L408.7,579.4z M168.6,520h-11.1
		l-7,20.5v-0.1v7.7h7.6L168.6,520z"/>
</g>
</svg>
