<?xml version="1.0" encoding="utf-8"?>
<!-- Generator: Adobe Illustrator 18.1.1, SVG Export Plug-In . SVG Version: 6.00 Build 0)  -->
<svg version="1.1" id="Layer_1" xmlns="http://www.w3.org/2000/svg" xmlns:xlink="http://www.w3.org/1999/xlink" x="0px" y="0px"
	 width="676px" height="162.9px" viewBox="-161 419.1 676 162.9" enable-background="new -161 419.1 676 162.9"
	 xml:space="preserve">
<g>
	<path fill="#FFFFFF" stroke="#FFFFFF" stroke-miterlimit="10" d="M-161,420.8h12V472h-12V420.8z M-98,420.8h30.1v10.5H-98V420.8z
		 M-98,472.1h30.9v10.5H-98V472.1z M42.7,431.6c1.8,0.5,3.5,1,5,1.7c1.5,0.7,2.8,1.3,3.9,2c1.1,0.7,1.8,1.2,2.2,1.7l5.3-9.7
		c-2.7-1.9-5.9-3.5-9.6-4.8c-3.2-1.2-6.7-1.9-10.4-2v10.6C40.3,431.1,41.5,431.3,42.7,431.6z M127.5,482.6h13.6l-13-20.7h-13.6
		L127.5,482.6z M238,424.2V443l29.5,36.8v-18.4L238,424.2z M362.4,420.8h30.1v10.5h-30.1V420.8z M362.4,446.2h26v9.7h-26V446.2z
		 M362.4,472.1h11.2v10.5h-11.2V472.1z M444.2,479.8l2.2,2.8h9.8v-61.7h-12V479.8z M396.1,530.4c2.9,0,5.5,0.5,7.8,1.5
		s4.2,2.4,5.8,4.2c1.6,1.8,2.8,3.9,3.6,6.4s1.2,5.2,1.2,8.2v0.1h12.1v-0.1c0-4.2-0.6-8.2-1.9-12c-1.3-3.7-3.2-7-5.7-9.8
		c-2.6-2.8-5.7-5-9.5-6.6c-3.8-1.6-8.2-2.4-13.3-2.4h-10.4v10.5H396.1L396.1,530.4z M334.7,571.1h31.5v10.5h-31.5V571.1z
		 M290.8,530.4c1,0,2.1,0.2,3.1,0.7s1.9,1.2,2.7,2.1c0.8,0.9,1.4,2,1.9,3.2c0.5,1.2,0.7,2.6,0.7,4c0,1.4-0.2,2.7-0.6,3.9
		s-1,2.3-1.7,3.2s-1.5,1.6-2.5,2.1s-2,0.8-3.1,0.8h-15.1v10.5h25.4l-1.6-2.5c3.4-1.4,6.1-3.8,8.1-7.1s3-6.9,3-10.9
		c0-2.5-0.5-5-1.5-7.4c-1-2.5-2.3-4.7-4.1-6.6c-1.8-1.9-3.8-3.5-6.2-4.7c-2.4-1.2-5-1.8-7.9-1.8h-15.3v10.5
		C276.1,530.4,290.8,530.4,290.8,530.4z M218.7,569.7c-2.1-1.2-4-2.7-5.4-4.6c-1.5-1.9-2.6-4.1-3.4-6.6c-0.2-0.6-0.4-1.2-0.5-1.9
		c-0.4-1.9-0.7-3.8-0.7-5.8h-12.1c0,3.9,0.7,7.8,2.1,11.5c1.4,3.8,3.4,7.1,6,10c2.6,2.9,5.7,5.3,9.3,7c3.6,1.8,7.6,2.7,11.9,2.7h0.1
		v-10.6C223.2,571.4,220.8,570.8,218.7,569.7L218.7,569.7z M-23.2,555.2h12v26.4h-12V555.2z M41.4,545.2v9.8h38v-9.8H41.4z
		 M161.1,472.1H192v10.5h-30.9V472.1z M183.4,519.8l-10.3,28.3h11.8l11.5-28.3H183.4z"/>
</g>
</svg>
